# xmcd
#
# Track frame offsets: 
#        150
#        17275
#        32625
#        50440
#        69960
#        86400
#        101732
#        117977
#        138542
#        153665
#        171917
#        188420
#        206102
#        220510
#
# Disc length: 3131 seconds
#
# Revision: 2
# Processed by: cddbd v1.5PL3 Copyright (c) Steve Scherf et al.
# Submitted via: ExactAudioCopy v0.90b4
#
DISCID=b70c390e
DTITLE=Adam Gregory - Workin' On It
DYEAR=2002
DGENRE=Country
TTITLE0=The World Could Use A Cowboy
TTITLE1=Me Too
TTITLE2=In The Country
TTITLE3=Don't Think So
TTITLE4=Could Have Fooled Me
TTITLE5=Sweet Memories
TTITLE6=Where It's At
TTITLE7=Workin' On It
TTITLE8=When I Leave This House (Featuring Billy Ray Cyrus)
TTITLE9=Walkin'
TTITLE10=Don't Look The Other Way
TTITLE11=Indian Summer
TTITLE12=Memory Like That
TTITLE13=End Of This Road
EXTD=YEAR: 2002 ID3G: 2
EXTT0=
EXTT1=
EXTT2=
EXTT3=
EXTT4=
EXTT5=
EXTT6=
EXTT7=
EXTT8=
EXTT9=
EXTT10=
EXTT11=
EXTT12=
EXTT13=
PLAYORDER=
